<svg xmlns="http://www.w3.org/2000/svg" width="800" height="500" viewBox="0 0 800 500" role="img" aria-labelledby="candidate-set-title candidate-set-desc"><title id="candidate-set-title">Candidate Set Size vs Click Rate</title><desc id="candidate-set-desc">Candidate Set Size vs Click Rate based on validated ContextSummary.csv.</desc><rect width="800" height="500" fill="#111315"/><rect x="1" y="1" width="798" height="498" rx="18" fill="none" stroke="#2B2D2E"/><style>text{font-family:'Segoe UI',Arial,sans-serif}.k{fill:#D6B45C;font-size:13px;font-weight:700;letter-spacing:2px}.t{fill:#F3EEE4;font-size:28px;font-weight:600}.m{fill:#F3EEE4;font-family:Georgia,serif;font-size:84px}.l{fill:#AAA69E;font-size:18px}.s{fill:#AAA69E;font-size:14px}.v{fill:#F3EEE4;font-size:15px;font-weight:600}.gold{fill:#D6B45C}.gray{fill:#B9C0C5}.pass{fill:#8EBF7B}</style><text class="k" x="48" y="56">POWER BI EVIDENCE · CONTEXT</text><text class="t" x="48" y="97">Candidate Set Size vs Click Rate</text><line x1="85" y1="375" x2="715" y2="375" stroke="#2B2D2E"/><polyline points="85.0,189.8 295.0,311.7 505.0,338.4 715.0,355.0" fill="none" stroke="#B9C0C5" stroke-width="4"/><polyline points="85.0,204.1 295.0,307.6 505.0,337.8 715.0,355.2" fill="none" stroke="#D6B45C" stroke-width="4"/><text class="s gray" x="530" y="128">● TRAIN</text><text class="s gold" x="638" y="128">● DEV</text><text class="s" x="85" y="410" text-anchor="middle">1-9</text><circle cx="85" cy="189.83870967741936" r="5" fill="#B9C0C5"/><circle cx="85" cy="204.07195331702232" r="5" fill="#D6B45C"/><text class="s gray" x="78" y="178.83870967741936" text-anchor="end">22.2152%</text><text class="s gold" x="92" y="221.07195331702232">20.5069%</text><text class="s" x="295" y="410" text-anchor="middle">10-24</text><circle cx="295" cy="311.658073794234" r="5" fill="#B9C0C5"/><circle cx="295" cy="307.5508540076514" r="5" fill="#D6B45C"/><text class="s gray" x="288" y="300.658073794234" text-anchor="end">7.5944%</text><text class="s gold" x="302" y="324.5508540076514">8.0874%</text><text class="s" x="505" y="410" text-anchor="middle">25-49</text><circle cx="505" cy="338.4067937232438" r="5" fill="#B9C0C5"/><circle cx="505" cy="337.8086190344665" r="5" fill="#D6B45C"/><text class="s gray" x="498" y="327.4067937232438" text-anchor="end">4.3840%</text><text class="s gold" x="512" y="354.8086190344665">4.4558%</text><text class="s" x="715" y="410" text-anchor="middle">50+</text><circle cx="715" cy="354.9894224148952" r="5" fill="#B9C0C5"/><circle cx="715" cy="355.16129032258067" r="5" fill="#D6B45C"/><text class="s gray" x="708" y="343.9894224148952" text-anchor="end">2.3938%</text><text class="s gold" x="722" y="372.16129032258067">2.3732%</text><text class="s" x="48" y="462">Observed recommendation context — not a causal claim.</text></svg>
